<svg xmlns="http://www.w3.org/2000/svg" width="430" height="174"><defs><style type="text/css">svg{background-color:#fff}.root text,.root tspan{font:12px Arial}.root circle,.root path{stroke-width:2px;stroke:#000}.root path{fill-opacity:0}.subexp .subexp-box{fill-opacity:0;stroke-width:2px;stroke:#908c83;stroke-dasharray:6,2}.root circle{fill:#6b6659}.escape text,.literal text{fill:#000}.escape rect{fill:#bada55}.literal rect{fill:#dae9e5}.subexp .subexp-label tspan{font-size:10px;dominant-baseline:text-after-edge}.quote{fill:#908c83}</style></defs><g class="root" transform="matrix(1.3,0,0,1.3,15,10)"><g class="regexp match"><path d="M42,63H67M88.33,63H108.33M206.99,63H242" transform="matrix(1,0,0,1,10,0)"/><g class="match-fragment"><path d="M10,12q-10,0 -10,10v2q0,10 10,10h32q10,0 10,-10v-2q0,-10 -10,-10M52,27l5,-5m-5,5l-5,-5" transform="matrix(1,0,0,1,10,0) matrix(1,0,0,1,0,51)"/><g class="escape"><g class="label" transform="matrix(1,0,0,1,10,0) matrix(1,0,0,1,0,51) matrix(1,0,0,1,10,0)"><rect width="32" height="24" rx="3" ry="3"/><text x="0" y="0" transform="matrix(1,0,0,1,5,17)"><tspan>digit</tspan></text></g></g></g><g class="match-fragment literal"><g class="label" transform="matrix(1,0,0,1,10,0) matrix(1,0,0,1,67,51)"><rect width="21.33" height="24" rx="3" ry="3"/><text x="0" y="0" transform="matrix(1,0,0,1,5,17)"><tspan class="quote">“</tspan><tspan> </tspan><tspan class="quote">”</tspan></text></g></g><g class="match-fragment subexp" transform="matrix(1,0,0,1,10,0) matrix(1,0,0,1,98.33,0)"><rect width="118.66" height="102" class="subexp-box" rx="3" ry="3" transform="matrix(1,0,0,1,0,12)"/><text x="0" y="0" class="subexp-label" transform="matrix(1,0,0,1,0,12)"><tspan>group #1</tspan></text><g class="regexp"><path d="M10,22q0,-10 10,-10M88.66,22q0,-10 -10,-10M0,41c10,0 10,0 20,0M98.66,41c-10,0 -10,0 -20,0M10,60q0,10 10,10M88.66,60q0,10 -10,10M0,41q10,0 10,-10V22M98.66,41q-10,0 -10,-10V22M0,41q10,0 10,10V60M98.66,41q-10,0 -10,10V60" transform="matrix(1,0,0,1,10,22)"/><g class="regexp-matches"><path d="M0,12h12.33M46.33,12H58.66M0,41h9.66M49.00,41H58.66M0,70h0M58.66,70H58.66" transform="matrix(1,0,0,1,10,22) matrix(1,0,0,1,20,0)"/><g class="match match-fragment literal"><g class="label" transform="matrix(1,0,0,1,10,22) matrix(1,0,0,1,20,0) matrix(1,0,0,1,12.33,0)"><rect width="34" height="24" rx="3" ry="3"/><text x="0" y="0" transform="matrix(1,0,0,1,5,17)"><tspan class="quote">“</tspan><tspan>pig</tspan><tspan class="quote">”</tspan></text></g></g><g class="match match-fragment literal"><g class="label" transform="matrix(1,0,0,1,10,22) matrix(1,0,0,1,20,0) matrix(1,0,0,1,9.66,29)"><rect width="39.33" height="24" rx="3" ry="3"/><text x="0" y="0" transform="matrix(1,0,0,1,5,17)"><tspan class="quote">“</tspan><tspan>cow</tspan><tspan class="quote">”</tspan></text></g></g><g class="match match-fragment literal"><g class="label" transform="matrix(1,0,0,1,10,22) matrix(1,0,0,1,20,0) matrix(1,0,0,1,0,58)"><rect width="58.66" height="24" rx="3" ry="3"/><text x="0" y="0" transform="matrix(1,0,0,1,5,17)"><tspan class="quote">“</tspan><tspan>chicken</tspan><tspan class="quote">”</tspan></text></g></g></g></g></g><g class="match-fragment"><path d="M0,22q10,0 10,-10v-2q0,-10 10,-10h14q10,0 10,10v2q0,10 10,10" transform="matrix(1,0,0,1,10,0) matrix(1,0,0,1,227,41)"/><g class="literal"><g class="label" transform="matrix(1,0,0,1,10,0) matrix(1,0,0,1,227,41) matrix(1,0,0,1,15,10)"><rect width="24" height="24" rx="3" ry="3"/><text x="0" y="0" transform="matrix(1,0,0,1,5,17)"><tspan class="quote">“</tspan><tspan>s</tspan><tspan class="quote">”</tspan></text></g></g></g></g><path d="M20,63H0M276,63H301"/><circle cx="0" cy="63" r="5"/><circle cx="301" cy="63" r="5"/></g></svg>